<svg width="133" height="143" viewBox="0 0 133 143" fill="none" xmlns="http://www.w3.org/2000/svg">
<path d="M8.42268 69.8612C9.38029 92.8439 17.2558 117.917 26.6201 138.986C29.3747 145.184 60.231 132.579 64.7843 131.278C83.9318 125.807 101.853 118.959 120.64 112.196C123.843 111.043 126.92 111.557 129.992 110.679C133.572 109.656 124.583 93.1901 123.421 91.0916C116.009 77.709 112.291 64.1542 106.234 50.5264C103.506 44.3883 100.017 35.8758 92.0805 38.5212C67.8633 46.5936 43.9468 60.4023 21.3125 72.0096C14.0173 75.7507 6.60044 78.5075 1.59863 83.5093" stroke="#F76D90" stroke-width="3" stroke-linecap="round" stroke-dasharray="12 12"/>
<path d="M51.6413 49.3893C50.7556 40.5322 36.025 32.6314 28.8944 29.4226C19.005 24.9724 13.5435 31.4336 7.91681 37.5104C-10.7642 57.6859 46.8758 53.0636 47.0919 49.3893C48.2997 28.8569 33.8896 0.52021 62.5092 1.62096C68.2279 1.84091 65.2894 24.3766 65.2894 28.9172C65.2894 39.5613 57.8801 48.263 49.3666 53.9387" stroke="#F76D90" stroke-width="3" stroke-linecap="round" stroke-dasharray="12 12"/>
<path d="M47.0918 56.2129C55.4428 67.6955 61.1636 89.6884 65.2893 103.097C68.1576 112.419 72.1133 116.894 72.1133 126.728" stroke="#F76D90" stroke-width="3" stroke-linecap="round" stroke-dasharray="12 12"/>
<path d="M58.4658 56.2129C59.2035 64.3272 63.7511 71.0358 66.5536 78.4542C69.6009 86.5207 70.1758 95.7479 73.3776 103.981C76.3675 111.669 75.5378 119.928 78.938 126.728" stroke="#F76D90" stroke-width="3" stroke-linecap="round" stroke-dasharray="12 12"/>
</svg>
