<svg width="199" height="122" viewBox="0 0 199 122" fill="none" xmlns="http://www.w3.org/2000/svg">
<path d="M67.9053 60.9942C57.8931 50.982 48.3216 40.5221 33.785 40.5221C16.0311 40.5221 1.93945 51.5596 1.93945 69.9666C1.93945 124.553 73.5129 119.085 112.388 120.136C123.641 120.44 120.223 111.462 120.223 102.065C120.223 89.8911 120.223 77.7173 120.223 65.5436C120.223 42.4668 116.584 12.1481 90.7785 3.11616C60.6614 -7.42481 61.0812 40.8675 61.0812 58.7195" stroke="#F76D90" stroke-width="3" stroke-linecap="round" stroke-dasharray="12 12"/>
<path d="M167.991 72.3674C161.474 65.8495 160.232 63.2687 150.931 63.2687C143.099 63.2687 137.29 65.4836 136.272 74.6421C133.607 98.6277 158.806 107.329 177.09 116.471C188.959 122.405 202.345 70.3182 194.782 59.7303C180.524 39.7688 165.717 56.2218 165.717 74.6421" stroke="#F76D90" stroke-width="3" stroke-linecap="round" stroke-dasharray="12 12"/>
</svg>
