<svg width="20" height="20" viewBox="0 0 20 20" fill="none" xmlns="http://www.w3.org/2000/svg">
<g id="logos:whatsapp-icon" clip-path="url(#clip0_23_1887)">
<path id="Vector" d="M10.1284 18.7988C8.58613 18.7993 7.08021 18.3963 5.75288 17.63L1.21777 18.8721L2.43468 14.231C1.73587 12.9473 1.36971 11.5091 1.3696 10.0475V10.0437C1.3696 5.21877 5.29575 1.2912 10.1215 1.28913C12.4599 1.28821 14.6588 2.19805 16.3132 3.8511C17.9673 5.50386 18.8788 7.70198 18.8799 10.044C18.8799 14.8695 14.9539 18.7968 10.1284 18.7988" fill="url(#paint0_linear_23_1887)"/>
<path id="Vector_2" d="M10.1314 19.1114C8.53363 19.1119 6.97385 18.6945 5.59899 17.9009L0.901302 19.1876L2.16183 14.38C1.43961 13.0554 1.05882 11.564 1.05826 10.0464V10.0425C1.05826 5.04449 5.12564 0.975828 10.1241 0.973694C12.5466 0.972839 14.8245 1.91541 16.5381 3.62751C18.2515 5.33983 19.1958 7.61656 19.1968 10.0425C19.1968 15.0413 15.13 19.1094 10.1314 19.1114ZM5.83577 16.2484L6.12071 16.4279C7.32055 17.1825 8.70708 17.5808 10.1308 17.5802C14.2855 17.5786 17.6657 14.1974 17.6657 10.0396C17.6648 8.02616 16.8799 6.13391 15.4558 4.71067C14.0316 3.2875 12.1383 2.50437 10.1247 2.50487C5.97002 2.50672 2.58943 5.88802 2.58943 10.0425V10.0455C2.59014 11.3982 2.95342 12.7249 3.63993 13.8819L3.80321 14.1573L3.05523 17.0102L5.83577 16.2484Z" fill="url(#paint1_linear_23_1887)"/>
<path id="Vector_3" d="M13.9212 12.3091C14.2985 12.4789 14.3061 12.6575 14.3127 12.8189C14.3184 12.9511 14.318 13.1023 14.318 13.2532C14.318 13.4043 14.2611 13.6499 14.0345 13.8574C13.8077 14.0652 13.2596 14.6506 12.1447 14.6506C11.0299 14.6506 9.95246 13.8386 9.80113 13.7254C9.65008 13.612 7.28911 12.1578 6.38084 9.85456C5.62603 7.9404 5.77615 7.55087 5.814 7.13543C5.85171 6.71993 6.36198 5.79472 6.89111 5.60597C7.42016 5.41707 7.87366 5.41707 7.96843 5.4737C8.06284 5.53034 8.11955 5.68145 8.23282 5.90806C8.34608 6.13467 8.89435 7.24877 8.96998 7.45645C9.04554 7.6642 9.08325 7.81525 8.85636 7.96637C8.62982 8.11749 8.11955 8.55142 7.96843 8.68368C7.81696 8.8158 7.7981 8.94807 7.91144 9.1746C8.02514 9.40135 8.26412 10.1311 9.03601 10.9969C9.63664 11.6705 10.3784 12.1253 10.6052 12.2575C10.8318 12.3897 10.9546 12.2717 11.0675 12.158C11.169 12.0562 11.3321 11.9314 11.4644 11.818C11.5967 11.705 11.6911 11.6673 11.8422 11.5917C11.9935 11.5161 12.1258 11.5539 12.2392 11.6105C12.3525 11.6673 13.4731 12.1076 13.9212 12.3091Z" fill="white"/>
</g>
<defs>
<linearGradient id="paint0_linear_23_1887" x1="-1747.33" y1="-860.278" x2="18.8799" y2="-860.278" gradientUnits="userSpaceOnUse">
<stop stop-color="#1FAF38"/>
<stop offset="1" stop-color="#60D669"/>
</linearGradient>
<linearGradient id="paint1_linear_23_1887" x1="-1810.35" y1="-891.506" x2="19.1968" y2="-891.506" gradientUnits="userSpaceOnUse">
<stop stop-color="#F9F9F9"/>
<stop offset="1" stop-color="white"/>
</linearGradient>
<clipPath id="clip0_23_1887">
<rect width="18.2139" height="18.3562" fill="white" transform="matrix(0 -1 -1 0 19.1968 19.1876)"/>
</clipPath>
</defs>
</svg>
