<svg width="60" height="60" viewBox="0 0 60 60" fill="none" xmlns="http://www.w3.org/2000/svg">
<rect width="60" height="60" rx="16" fill="#FD002A"/>
<g clip-path="url(#clip0_1_365)">
<path d="M46.227 21.8384C46.0263 21.0965 45.6347 20.4201 45.0912 19.8766C44.5478 19.3332 43.8714 18.9415 43.1295 18.7407C40.4135 18 29.4823 18 29.4823 18C29.4823 18 18.5505 18.0224 15.8344 18.7632C15.0925 18.964 14.4162 19.3556 13.8727 19.8991C13.3293 20.4426 12.9377 21.119 12.7369 21.8609C11.9154 26.6868 11.5967 34.0404 12.7595 38.6732C12.9603 39.4151 13.3519 40.0915 13.8953 40.635C14.4388 41.1785 15.1151 41.5701 15.857 41.7709C18.5731 42.5116 29.5045 42.5116 29.5045 42.5116C29.5045 42.5116 40.4359 42.5116 43.1518 41.7709C43.8937 41.5701 44.5701 41.1785 45.1136 40.635C45.6571 40.0915 46.0487 39.4152 46.2494 38.6732C47.116 33.8405 47.383 26.4915 46.227 21.8384Z" fill="white"/>
<path d="M26.0029 35.5081L35.0712 30.2556L26.0029 25.0032V35.5081Z" fill="#FD002A"/>
</g>
<defs>
<clipPath id="clip0_1_365">
<rect width="35" height="24.6094" fill="white" transform="translate(12 18)"/>
</clipPath>
</defs>
</svg>
